Aka Saw 3D: The Final Chapter 

As a deadly battle rages over Jigsaw's brutal legacy, a group of Jigsaw survivors gathers to seek the support of self-help guru and fellow survivor Bobby Dagen, a man whose own dark secrets unleash a new wave of terror..
 
http://www.imdb.com/title/tt1477076/

Subs: Dutch (srt).

Het gevecht tussen detective Hoffman en Jill Tuck duurt voort. Ondertussen ontmoeten een aantal overlevenden van de spelletjes van Jigsaw, waaronder Dr. Lawrence Gordon, elkaar bij een sessie van Bobby Dagen, die beweert zelf ook een overlevende van Jigsaw te zijn. Maar dan wordt Bobby ontvoerd en zal hij een serie tests moeten afleggen om zijn vrienden en uiteindelijk zijn vrouw te redden..
 
http://www.moviemeter.nl/film/67959

Ondertitels: Nederlands (srt).

General
Complete name                    : Saw VII-AC3-XviD-BRRip 2010 TBS\Saw VII-AC3-XviD-BRRip 2010 TBS.avi
Format                           : AVI
Format/Info                      : Audio Video Interleave
File size                        : 1.46 GiB
Duration                         : 1h 30mn
Overall bit rate                 : 2 323 Kbps
Writing application              : VirtualDubMod 1.5.4.1 (build 2178/release)
Writing library                  : VirtualDubMod build 2178/release
Source                           : Saw.VII.2010.720p.Bluray.x264.DTS-HDChina

Video
ID                               : 0
Format                           : MPEG-4 Visual
Format profile                   : Simple@L3
Format settings, BVOP            : No
Format settings, QPel            : No
Format settings, GMC             : No warppoints
Format settings, Matrix          : Default (H.263)
Codec ID                         : XVID
Codec ID/Hint                    : XviD
Duration                         : 1h 30mn
Bit rate                         : 1 866 Kbps
Width                            : 720 pixels
Height                           : 400 pixels
Display aspect ratio             : 16:9
Frame rate                       : 23.976 fps
Resolution                       : 8 bits
Colorimetry                      : 4:2:0
Scan type                        : Progressive
Bits/(Pixel*Frame)               : 0.270
Stream size                      : 1.17 GiB (80%)
Writing library                  : XviD 1.1.2 (UTC 2006-11-01)

Audio
ID                               : 1
Format                           : AC-3
Format/Info                      : Audio Coding 3
Codec ID                         : 2000
Duration                         : 1h 29mn
Bit rate mode                    : Constant
Bit rate                         : 448 Kbps
Channel(s)                       : 6 channels
Channel positions                : Front: L C R, Surround: L R, LFE
Sampling rate                    : 48.0 KHz
Stream size                      : 288 MiB (19%)
Alignment                        : Split accross interleaves
Interleave, duration             : 42 ms (1.00 video frame)
Interleave, preload duration     : 500 ms

Thanks to Bradje for the source, and Simply ReleaseS Toppers for the Dutch subs.. Awesome job peeps!

Blackbeard  TBS.